<mxfile host="app.diagrams.net" agent="Mozilla/5.0 (X11; Linux x86_64) AppleWebKit/537.36 (KHTML, like Gecko) Chrome/132.0.0.0 YaBrowser/25.2.0.0 Safari/537.36" version="27.0.9">
  <diagram name="Страница — 1" id="pDs2JRNaLGS8vngovNEB">
    <mxGraphModel dx="807" dy="461" grid="1" gridSize="10" guides="1" tooltips="1" connect="1" arrows="1" fold="1" page="1" pageScale="1" pageWidth="827" pageHeight="1169" math="0" shadow="0">
      <root>
        <mxCell id="0" />
        <mxCell id="1" parent="0" />
        <mxCell id="AvmZKd4eEEUaCIIeCbnR-7" style="edgeStyle=orthogonalEdgeStyle;rounded=0;orthogonalLoop=1;jettySize=auto;html=1;fillColor=#dae8fc;strokeColor=#6c8ebf;strokeWidth=2;" edge="1" parent="1" source="AvmZKd4eEEUaCIIeCbnR-2" target="AvmZKd4eEEUaCIIeCbnR-3">
          <mxGeometry relative="1" as="geometry" />
        </mxCell>
        <mxCell id="AvmZKd4eEEUaCIIeCbnR-2" value="&lt;font style=&quot;font-size: 20px;&quot;&gt;&lt;b&gt;lessons&lt;/b&gt;&lt;/font&gt;" style="shape=note;size=20;whiteSpace=wrap;html=1;" vertex="1" parent="1">
          <mxGeometry x="60" y="300" width="100" height="100" as="geometry" />
        </mxCell>
        <mxCell id="AvmZKd4eEEUaCIIeCbnR-3" value="&lt;font style=&quot;font-size: 20px;&quot;&gt;&lt;b&gt;classes&lt;/b&gt;&lt;/font&gt;" style="shape=note;size=20;whiteSpace=wrap;html=1;" vertex="1" parent="1">
          <mxGeometry x="200" y="300" width="100" height="100" as="geometry" />
        </mxCell>
        <mxCell id="AvmZKd4eEEUaCIIeCbnR-9" style="edgeStyle=orthogonalEdgeStyle;rounded=0;orthogonalLoop=1;jettySize=auto;html=1;" edge="1" parent="1" source="AvmZKd4eEEUaCIIeCbnR-4" target="AvmZKd4eEEUaCIIeCbnR-3">
          <mxGeometry relative="1" as="geometry" />
        </mxCell>
        <mxCell id="AvmZKd4eEEUaCIIeCbnR-12" value="" style="edgeStyle=orthogonalEdgeStyle;rounded=0;orthogonalLoop=1;jettySize=auto;html=1;fillColor=#d5e8d4;strokeColor=#82b366;strokeWidth=2;" edge="1" parent="1" source="AvmZKd4eEEUaCIIeCbnR-4" target="AvmZKd4eEEUaCIIeCbnR-3">
          <mxGeometry relative="1" as="geometry" />
        </mxCell>
        <mxCell id="AvmZKd4eEEUaCIIeCbnR-4" value="&lt;font style=&quot;font-size: 20px;&quot;&gt;&lt;b&gt;students&lt;/b&gt;&lt;/font&gt;" style="shape=note;size=20;whiteSpace=wrap;html=1;" vertex="1" parent="1">
          <mxGeometry x="340" y="300" width="100" height="100" as="geometry" />
        </mxCell>
        <mxCell id="AvmZKd4eEEUaCIIeCbnR-5" value="&lt;font style=&quot;font-size: 20px;&quot;&gt;&lt;b&gt;subjects&lt;/b&gt;&lt;/font&gt;" style="shape=note;size=20;whiteSpace=wrap;html=1;" vertex="1" parent="1">
          <mxGeometry x="200" y="420" width="100" height="100" as="geometry" />
        </mxCell>
        <mxCell id="AvmZKd4eEEUaCIIeCbnR-11" style="edgeStyle=orthogonalEdgeStyle;rounded=0;orthogonalLoop=1;jettySize=auto;html=1;fillColor=#f8cecc;strokeColor=#b85450;strokeWidth=2;" edge="1" parent="1" source="AvmZKd4eEEUaCIIeCbnR-6" target="AvmZKd4eEEUaCIIeCbnR-5">
          <mxGeometry relative="1" as="geometry" />
        </mxCell>
        <mxCell id="AvmZKd4eEEUaCIIeCbnR-6" value="&lt;font style=&quot;font-size: 20px;&quot;&gt;&lt;b&gt;teachers&lt;/b&gt;&lt;/font&gt;" style="shape=note;size=20;whiteSpace=wrap;html=1;" vertex="1" parent="1">
          <mxGeometry x="340" y="420" width="100" height="100" as="geometry" />
        </mxCell>
        <mxCell id="AvmZKd4eEEUaCIIeCbnR-10" style="edgeStyle=orthogonalEdgeStyle;rounded=0;orthogonalLoop=1;jettySize=auto;html=1;entryX=0;entryY=0.5;entryDx=0;entryDy=0;entryPerimeter=0;exitX=0.5;exitY=1;exitDx=0;exitDy=0;exitPerimeter=0;fillColor=#ffe6cc;strokeColor=#d79b00;strokeWidth=2;curved=1;" edge="1" parent="1" source="AvmZKd4eEEUaCIIeCbnR-2" target="AvmZKd4eEEUaCIIeCbnR-5">
          <mxGeometry relative="1" as="geometry" />
        </mxCell>
      </root>
    </mxGraphModel>
  </diagram>
</mxfile>
